# xmcd
#
# Track frame offsets: 
#        150
#        11503
#        25176
#        40831
#        54235
#        69148
#        86549
#        102470
#        114658
#        131302
#        141884
#        161141
#
# Disc length: 2175 seconds
#
# Revision: 0
# Processed by: cddbd v1.5.2PL0 Copyright (c) Steve Scherf et al.
# Submitted via: ExactAudioCopyFreeDBPlugin 1.0
#
DISCID=94087d0c
DTITLE=Kristy Cox - Miles and Timezones
DYEAR=2011
DGENRE=Bluegrass
TTITLE0=If i keep on loving you
TTITLE1=Miles and Timezones
TTITLE2=You won't find that here
TTITLE3=Every blue moon
TTITLE4=Sure as the devil
TTITLE5=Her past is looking brighter
TTITLE6=Little bit of wonderful
TTITLE7=Life is a mystery
TTITLE8=A hard secret to keep (feat jerry salley)
TTITLE9=Find out by myself
TTITLE10=I hate that i still love you
TTITLE11=Hidden Track
EXTD=
EXTT0=
EXTT1=
EXTT2=
EXTT3=
EXTT4=
EXTT5=
EXTT6=
EXTT7=
EXTT8=
EXTT9=
EXTT10=
EXTT11=
PLAYORDER=
